<svg width="44" height="43" viewBox="0 0 44 43" fill="none" xmlns="http://www.w3.org/2000/svg">
<path d="M14.9751 34.0417C16.9495 34.0417 18.55 32.4374 18.55 30.4583C18.55 28.4793 16.9495 26.875 14.9751 26.875C13.0007 26.875 11.4001 28.4793 11.4001 30.4583C11.4001 32.4374 13.0007 34.0417 14.9751 34.0417Z" stroke="#FF7737" stroke-width="1.5" stroke-miterlimit="1.5" stroke-linecap="round" stroke-linejoin="round"/>
<path d="M32.8499 34.0417C34.8243 34.0417 36.4248 32.4374 36.4248 30.4583C36.4248 28.4793 34.8243 26.875 32.8499 26.875C30.8754 26.875 29.2749 28.4793 29.2749 30.4583C29.2749 32.4374 30.8754 34.0417 32.8499 34.0417Z" stroke="#FF7737" stroke-width="1.5" stroke-miterlimit="1.5" stroke-linecap="round" stroke-linejoin="round"/>
<path d="M18.6394 30.4583H27.4874V11.825C27.4874 11.2313 27.0073 10.75 26.415 10.75H2.46272" stroke="#FF7737" stroke-width="1.5" stroke-linecap="round"/>
<path d="M10.7745 30.4583H7.11016C6.51784 30.4583 6.03767 29.9771 6.03767 29.3833V20.6042" stroke="#FF7737" stroke-width="1.5" stroke-linecap="round"/>
<path d="M4.25019 16.125H11.4001" stroke="#FF7737" stroke-width="1.5" stroke-linecap="round" stroke-linejoin="round"/>
<path d="M27.4874 16.125H37.5154C37.9392 16.125 38.3233 16.3752 38.4955 16.7634L41.6949 23.979C41.7558 24.1166 41.7873 24.2653 41.7873 24.4156V29.3833C41.7873 29.9771 41.3072 30.4583 40.7148 30.4583H37.3186" stroke="#FF7737" stroke-width="1.5" stroke-linecap="round"/>
<path d="M27.4874 30.4583H29.2749" stroke="#FF7737" stroke-width="1.5" stroke-linecap="round"/>
<rect x="0.675232" width="42.8995" height="43" stroke="white"/>
</svg>
