<svg width="56" height="52" viewBox="0 0 56 52" fill="none" xmlns="http://www.w3.org/2000/svg">
<path d="M18.6667 41.1667C21.244 41.1667 23.3333 39.2266 23.3333 36.8333C23.3333 34.44 21.244 32.5 18.6667 32.5C16.0893 32.5 14 34.44 14 36.8333C14 39.2266 16.0893 41.1667 18.6667 41.1667Z" stroke="#FF7737" stroke-width="1.5" stroke-miterlimit="1.5" stroke-linecap="round" stroke-linejoin="round"/>
<path d="M42 41.1667C44.5774 41.1667 46.6667 39.2266 46.6667 36.8333C46.6667 34.44 44.5774 32.5 42 32.5C39.4226 32.5 37.3334 34.44 37.3334 36.8333C37.3334 39.2266 39.4226 41.1667 42 41.1667Z" stroke="#FF7737" stroke-width="1.5" stroke-miterlimit="1.5" stroke-linecap="round" stroke-linejoin="round"/>
<path d="M23.45 36.8333H35V14.3C35 13.582 34.3733 13 33.6 13H2.33337" stroke="#FF7737" stroke-width="1.5" stroke-linecap="round"/>
<path d="M13.1833 36.8333H8.4C7.6268 36.8333 7 36.2514 7 35.5333V24.9167" stroke="#FF7737" stroke-width="1.5" stroke-linecap="round"/>
<path d="M4.66663 19.5H14" stroke="#FF7737" stroke-width="1.5" stroke-linecap="round" stroke-linejoin="round"/>
<path d="M35 19.5H48.0902C48.6435 19.5 49.1449 19.8026 49.3696 20.272L53.546 28.9978C53.6256 29.1642 53.6667 29.344 53.6667 29.5258V35.5333C53.6667 36.2514 53.0399 36.8333 52.2667 36.8333H47.8333" stroke="#FF7737" stroke-width="1.5" stroke-linecap="round"/>
<path d="M35 36.8333H37.3333" stroke="#FF7737" stroke-width="1.5" stroke-linecap="round"/>
</svg>
