<svg width="35" height="34" viewBox="0 0 35 34" fill="none" xmlns="http://www.w3.org/2000/svg">
<path d="M14.2457 29.0417C15.4166 29.0417 16.3658 28.0903 16.3658 26.9167C16.3658 25.7431 15.4166 24.7917 14.2457 24.7917C13.0749 24.7917 12.1257 25.7431 12.1257 26.9167C12.1257 28.0903 13.0749 29.0417 14.2457 29.0417Z" fill="white" stroke="#FF7737" stroke-width="1.5"/>
<path d="M24.1392 29.0417C25.3101 29.0417 26.2593 28.0903 26.2593 26.9167C26.2593 25.7431 25.3101 24.7917 24.1392 24.7917C22.9684 24.7917 22.0192 25.7431 22.0192 26.9167C22.0192 28.0903 22.9684 29.0417 24.1392 29.0417Z" fill="white" stroke="#FF7737" stroke-width="1.5"/>
<path d="M5.0589 5.66666H7.88561L12.8387 21.25H24.1392" stroke="#FF7737" stroke-width="1.5" stroke-linecap="round" stroke-linejoin="round"/>
<path d="M11.7362 17.7083L9.01434 9.20834H26.6922C27.1745 9.20834 27.515 9.68201 27.3625 10.1407L25.007 17.224C24.9108 17.5133 24.6407 17.7083 24.3365 17.7083H11.7362Z" fill="white" stroke="#FF7737" stroke-width="1.5" stroke-linecap="round" stroke-linejoin="round"/>
<rect x="0.112152" width="33.9206" height="34" stroke="white"/>
</svg>
