<svg width="14" height="14" viewBox="0 0 14 14" fill="none" xmlns="http://www.w3.org/2000/svg">
<path d="M13.6583 11.7591L10.6967 8.99743C11.3086 8.13743 11.6668 7.10772 11.6668 6.00077C11.6668 3.00138 9.04993 0.561188 5.83339 0.561188C2.61686 0.561188 0 3.00138 0 6.00077C0 9.00015 2.61686 11.4403 5.83339 11.4403C7.02049 11.4403 8.12475 11.1064 9.04701 10.5357L12.0086 13.2974C12.4636 13.7222 13.2033 13.7222 13.6583 13.2974C14.1139 12.8726 14.1139 12.1839 13.6583 11.7591ZM1.75002 6.00077C1.75002 3.90109 3.5817 2.19306 5.83339 2.19306C8.08508 2.19306 9.91677 3.90109 9.91677 6.00077C9.91677 8.10044 8.08508 9.80847 5.83339 9.80847C3.5817 9.80847 1.75002 8.10044 1.75002 6.00077Z" fill="white"/>
</svg>
