<svg width="22" height="22" viewBox="0 0 22 22" fill="none" xmlns="http://www.w3.org/2000/svg">
<path d="M12.7318 3.67462H14.3107V0.644287H11.1528V2.15946M12.7318 3.67462H11.1528V2.15946M12.7318 3.67462V7.61406V11.5535M12.7318 11.5535H11.1528V13.0687M12.7318 11.5535H14.3107V14.5838H11.1528V13.0687M2.20546 3.67462H0.626511V0.644287H3.78441V2.15946M2.20546 3.67462V7.61406V11.5535M2.20546 3.67462H3.78441V2.15946M2.20546 11.5535H0.626511V14.5838H3.78441V13.0687M2.20546 11.5535H3.78441V13.0687M3.78441 2.15946H11.1528M3.78441 13.0687H11.1528" stroke="#07D0FC"/>
<path d="M19.0476 9.73517H20.6265V6.70483H17.4686V8.22M19.0476 9.73517H17.4686V8.22M19.0476 9.73517V13.6746V17.614M19.0476 17.614H17.4686V19.1292M19.0476 17.614H20.6265V20.6444H17.4686V19.1292M8.52124 17.614H6.94229V20.6444H10.1002V19.1292M8.52124 17.614H10.1002V19.1292M8.52124 17.614V13.6746M17.4686 8.22H12.7318M10.1002 19.1292H13.7844H17.4686" stroke="#07D0FC"/>
</svg>
